<svg xmlns="http://www.w3.org/2000/svg" width="253.043" height="97.041"><defs><clipPath id="a"><path data-name="Rectangle 7794" fill="none" d="M0 0h253.043v97.041H0z"/></clipPath></defs><g data-name="Groupe 6697" clip-path="url(#a)"><path data-name="Tracé 786" d="M99.695 44.305h4.644a6.675 6.675 0 0 0 6.7-6.634v-.261a6.708 6.708 0 0 0-2.28-4.872 6.022 6.022 0 0 0 2.02-4.58 6.267 6.267 0 0 0-6.44-6.375h-4.644a2.078 2.078 0 0 0-2.024 2.025v18.67a2.077 2.077 0 0 0 2.024 2.024m7.3-6.895v.261a2.622 2.622 0 0 1-2.619 2.618h-2.656v-5.66h2.652a2.741 2.741 0 0 1 2.619 2.781m-.261-9.449a2.435 2.435 0 0 1-2.359 2.652h-2.651V25.6h2.652a2.189 2.189 0 0 1 2.358 2.358"/><path data-name="Tracé 787" d="M121.856 44.468a6.426 6.426 0 0 0 6.634-6.506V27.896a6.5 6.5 0 0 0-6.634-6.5h-.293a6.579 6.579 0 0 0-6.636 6.5v10.1a6.486 6.486 0 0 0 6.636 6.474Zm2.585-6.474a2.484 2.484 0 0 1-2.585 2.49h-.293a2.5 2.5 0 0 1-2.587-2.522V27.896a2.483 2.483 0 0 1 2.587-2.488h.293a2.483 2.483 0 0 1 2.585 2.488Z"/><path data-name="Tracé 788" d="M136.634 35.149h1.718l3.89 8.165a1.854 1.854 0 0 0 1.752 1.155 2.055 2.055 0 0 0 2.122-1.96 2.194 2.194 0 0 0-.241-.9l-3.349-7.051a6.528 6.528 0 0 0 3.816-6.045v-.292a6.564 6.564 0 0 0-6.636-6.636h-5.1a2.079 2.079 0 0 0-2.025 2.025v18.866a2.025 2.025 0 0 0 4.049 0Zm5.661-6.927v.292a2.458 2.458 0 0 1-2.393 2.619h-3.268v-5.53h3.17a2.5 2.5 0 0 1 2.491 2.619"/><path data-name="Tracé 789" d="M163.754 37.766v-9.675a6.5 6.5 0 0 0-6.634-6.5h-4.9a2.078 2.078 0 0 0-2.025 2.025v18.67a2.078 2.078 0 0 0 2.025 2.024h4.9a6.517 6.517 0 0 0 6.634-6.538m-4.049.032a2.484 2.484 0 0 1-2.585 2.49h-2.882V25.602h2.88a2.483 2.483 0 0 1 2.585 2.488Z"/><path data-name="Tracé 790" d="M181.41 42.314a1.94 1.94 0 0 0-2.024-2.024h-7.49v-5.661h4.925a2.008 2.008 0 1 0 0-4.016h-4.925v-5.01h7.49a2.008 2.008 0 1 0 0-4.016h-9.514a2.077 2.077 0 0 0-2.024 2.025v18.67a2.076 2.076 0 0 0 2.024 2.024h9.514a1.943 1.943 0 0 0 2.024-1.991"/><path data-name="Tracé 791" d="m195.765 39.239 1.17 3.829a1.839 1.839 0 0 0 1.856 1.4 1.953 1.953 0 0 0 2.088-1.926 2.311 2.311 0 0 0-.1-.659l-5.909-18.8a2.293 2.293 0 0 0-4.425 0l-5.937 18.787a1.494 1.494 0 0 0-.11.673 1.954 1.954 0 0 0 2.09 1.926 1.884 1.884 0 0 0 1.89-1.4l1.169-3.829Zm-1.253-4.016h-3.715l1.856-6.222Z"/><path data-name="Tracé 792" d="M210.368 44.468h.293a6.643 6.643 0 0 0 6.667-6.6V23.416a2.025 2.025 0 1 0-4.049 0v14.448a2.621 2.621 0 0 1-2.618 2.619h-.293a2.576 2.576 0 0 1-2.587-2.619V23.416a2.024 2.024 0 1 0-4.047 0v14.448a6.626 6.626 0 0 0 6.634 6.6"/><path data-name="Tracé 793" d="m224.676 43.383 3.121-6.241 3.09 6.243a1.881 1.881 0 0 0 1.749 1.083 1.96 1.96 0 0 0 1.879-2.9l-4.482-8.967 4.122-8.276a1.985 1.985 0 0 0-1.845-2.938 1.862 1.862 0 0 0-1.749 1.118l-2.764 5.558-2.763-5.555a1.883 1.883 0 0 0-1.75-1.121 2.029 2.029 0 0 0-2.088 1.959 2.137 2.137 0 0 0 .21.972l4.125 8.283-4.447 8.959a1.961 1.961 0 0 0 1.877 2.9 1.823 1.823 0 0 0 1.717-1.084"/><path data-name="Tracé 794" d="M112.813 52.747h-.487c-1.307 0-1.791.845-2.174 1.705l-3.9 8.8-3.9-8.8c-.384-.86-.869-1.705-2.176-1.705h-.486a2.078 2.078 0 0 0-2.025 2.024v19.06a2.025 2.025 0 0 0 4.049 0v-11.2l2.49 5.739a2.223 2.223 0 0 0 4.089 0l2.491-5.741v11.2a2.024 2.024 0 0 0 4.047 0V54.771a2.077 2.077 0 0 0-2.018-2.024"/><path data-name="Tracé 795" d="M130.658 56.957a2.008 2.008 0 1 0 0-4.016h-9.514a2.078 2.078 0 0 0-2.024 2.025v18.67a2.078 2.078 0 0 0 2.024 2.024h9.514a2.008 2.008 0 1 0 0-4.016h-7.489v-5.66h4.925a2.008 2.008 0 1 0 0-4.016h-4.925v-5.011Z"/><path data-name="Tracé 796" d="M147.32 52.941h-8.964a2.008 2.008 0 1 0 0 4.016h2.456v16.874a2.025 2.025 0 0 0 4.049 0V56.957h2.459a2.008 2.008 0 1 0 0-4.016"/><path data-name="Tracé 797" d="M160.352 52.941h-5.1a2.078 2.078 0 0 0-2.025 2.025v18.865a2.025 2.025 0 0 0 4.049 0v-7.327h1.719l3.89 8.165a1.854 1.854 0 0 0 1.752 1.155 2.055 2.055 0 0 0 2.121-1.96 2.172 2.172 0 0 0-.241-.9l-3.347-7.045a6.525 6.525 0 0 0 3.816-6.044v-.298a6.565 6.565 0 0 0-6.636-6.636m2.587 6.636v.293a2.457 2.457 0 0 1-2.393 2.618h-3.268v-5.531h3.171a2.5 2.5 0 0 1 2.49 2.619"/><path data-name="Tracé 798" d="M177.916 52.747h-.292a6.579 6.579 0 0 0-6.636 6.5v10.1a6.486 6.486 0 0 0 6.636 6.474h.292a6.428 6.428 0 0 0 6.636-6.506V59.252a6.5 6.5 0 0 0-6.636-6.5m2.587 6.5v10.1a2.484 2.484 0 0 1-2.587 2.49h-.292a2.5 2.5 0 0 1-2.587-2.522V59.252a2.484 2.484 0 0 1 2.587-2.49h.292a2.484 2.484 0 0 1 2.587 2.49"/><path data-name="Tracé 799" d="M195.572 52.941h-4.9a2.078 2.078 0 0 0-2.024 2.025v18.865a2.025 2.025 0 0 0 4.049 0v-7.653h2.878a6.619 6.619 0 1 0 0-13.237m2.587 6.6a2.575 2.575 0 0 1-2.587 2.618h-2.878v-5.2h2.878a2.59 2.59 0 0 1 2.587 2.587"/><path data-name="Tracé 800" d="M212.553 52.747h-.293a6.577 6.577 0 0 0-6.634 6.5v10.1a6.485 6.485 0 0 0 6.634 6.472h.293a6.426 6.426 0 0 0 6.634-6.5V59.252a6.5 6.5 0 0 0-6.634-6.5m2.585 16.6a2.484 2.484 0 0 1-2.585 2.49h-.293a2.5 2.5 0 0 1-2.587-2.522V59.252a2.484 2.484 0 0 1 2.587-2.49h.293a2.484 2.484 0 0 1 2.585 2.49Z"/><path data-name="Tracé 801" d="M233.756 71.644h-6.255V54.771a2.025 2.025 0 0 0-4.049 0v18.866a2.077 2.077 0 0 0 2.024 2.024h8.28a2.008 2.008 0 1 0 0-4.016"/><path data-name="Tracé 802" d="M251.022 71.647h-7.489v-5.66h4.923a2.008 2.008 0 1 0 0-4.016h-4.923v-5.014h7.489a2.008 2.008 0 1 0 0-4.016h-9.514a2.078 2.078 0 0 0-2.024 2.025v18.67a2.078 2.078 0 0 0 2.024 2.024h9.514a2.008 2.008 0 1 0 0-4.016"/><path data-name="Tracé 803" d="m127.314 46.129-4.544 2.24a1.838 1.838 0 0 0-1.118 1.718 2.025 2.025 0 0 0 1.926 2.056 2.3 2.3 0 0 0 .905-.241l4.546-2.208a1.84 1.84 0 0 0 1.12-1.718 2.026 2.026 0 0 0-1.928-2.056 2.3 2.3 0 0 0-.907.208"/><path data-name="Tracé 804" d="M59.61 72.598a2.423 2.423 0 0 1-1.815-.814L32.711 43.612a2.43 2.43 0 0 1 3.629-3.232l25.083 28.174a2.429 2.429 0 0 1-1.814 4.044" fill="#dd1a45"/><path data-name="Tracé 805" d="M59.611 72.598a2.427 2.427 0 0 1-2.073-1.16L46.846 53.987a2.43 2.43 0 1 1 4.143-2.538L61.676 68.9a2.428 2.428 0 0 1-2.069 3.7" fill="#91c492"/><path data-name="Tracé 806" d="M59.61 72.603a2.431 2.431 0 0 1-2.281-1.6L46.27 40.877a2.43 2.43 0 0 1 4.561-1.674L61.89 69.331a2.428 2.428 0 0 1-2.28 3.272" fill="#e86061"/><path data-name="Tracé 807" d="M59.606 72.599a2.429 2.429 0 0 1-2.4-2.064l-6.424-42.3a2.428 2.428 0 1 1 4.8-.728l6.431 42.298a2.43 2.43 0 0 1-2.04 2.77 2.722 2.722 0 0 1-.368.027" fill="#ffbf00"/><path data-name="Tracé 808" d="M59.611 72.601a2.4 2.4 0 0 1-.515-.055 2.429 2.429 0 0 1-1.862-2.887L71.875 1.917a2.43 2.43 0 0 1 4.75 1.027l-14.64 67.74a2.426 2.426 0 0 1-2.374 1.917" fill="#e86061"/><path data-name="Tracé 809" d="M59.61 72.598a2.425 2.425 0 0 1-2.309-3.181l14.012-43a2.429 2.429 0 1 1 4.619 1.5l-14.012 43a2.431 2.431 0 0 1-2.309 1.677" fill="#2fa070"/><path data-name="Tracé 810" d="M59.608 72.598a2.429 2.429 0 0 1-2.126-3.6l26.75-48.671a2.429 2.429 0 0 1 4.257 2.34L61.738 71.341a2.43 2.43 0 0 1-2.131 1.258" fill="#dd1a45"/><path data-name="Tracé 811" d="M59.608 72.599a2.429 2.429 0 0 1-1.962-3.857l16.576-22.756a2.43 2.43 0 0 1 3.928 2.863L61.576 71.6a2.42 2.42 0 0 1-1.964 1" fill="#91c492"/><path data-name="Tracé 812" d="M59.609 72.599a2.429 2.429 0 0 1-1.814-4.044l28.528-32.059a2.43 2.43 0 1 1 3.629 3.23L61.424 71.785a2.421 2.421 0 0 1-1.815.814" fill="#ffbf00"/><path data-name="Tracé 813" d="M59.61 72.598a2.428 2.428 0 0 1-1.669-4.194l16.448-15.545a2.429 2.429 0 1 1 3.337 3.53l-16.45 15.542a2.424 2.424 0 0 1-1.669.663" fill="#e86061"/><path data-name="Tracé 814" d="M59.612 72.598a2.428 2.428 0 0 1-1.445-4.382L82.65 51.759a2.428 2.428 0 1 1 2.887 3.9L61.054 72.122a2.411 2.411 0 0 1-1.442.476" fill="#2fa070"/><path data-name="Tracé 815" d="M59.612 72.598a2.429 2.429 0 0 1-1.005-4.641l13.069-5.928a2.428 2.428 0 1 1 2 4.422l-13.065 5.93a2.442 2.442 0 0 1-1 .217" fill="#dd1a45"/><path data-name="Tracé 816" d="M59.607 72.599a2.429 2.429 0 0 1-.517-4.8l24.845-5.438a2.43 2.43 0 0 1 1.04 4.745l-24.847 5.438a2.446 2.446 0 0 1-.521.055" fill="#91c492"/><path data-name="Tracé 817" d="M73.751 77.283a2.413 2.413 0 0 1-.765-.124l-14.141-4.685a2.429 2.429 0 1 1 1.53-4.61l14.141 4.684a2.43 2.43 0 0 1-.763 4.736" fill="#ffbf00"/><path data-name="Tracé 818" d="M79.095 85.713a2.413 2.413 0 0 1-1.353-.414l-19.49-13.115a2.429 2.429 0 1 1 2.712-4.03l19.49 13.115a2.429 2.429 0 0 1-1.359 4.444" fill="#e86061"/><path data-name="Tracé 819" d="M68.247 85.712a2.426 2.426 0 0 1-2.031-1.093l-8.635-13.114a2.43 2.43 0 0 1 4.059-2.668l8.636 13.109a2.43 2.43 0 0 1-2.026 3.766" fill="#2fa070"/><path data-name="Tracé 820" d="M59.89 95.327a2.428 2.428 0 0 1-2.428-2.4l-.287-22.728a2.431 2.431 0 0 1 2.4-2.462h.031a2.43 2.43 0 0 1 2.428 2.4l.282 22.729a2.429 2.429 0 0 1-2.4 2.459Z" fill="#dd1a45"/><path data-name="Tracé 821" d="M56.864 85.276a2.48 2.48 0 0 1-.69-.025 2.429 2.429 0 0 1-1.955-2.825l2.335-12.847a2.43 2.43 0 1 1 4.78.869l-2.335 12.844a2.431 2.431 0 0 1-2.135 1.981" fill="#e86061"/><path data-name="Tracé 822" d="M44.852 97.037a2.428 2.428 0 0 1-2.214-3.426l14.76-24.437a2.429 2.429 0 0 1 4.43 1.993L47.069 95.609a2.431 2.431 0 0 1-2.217 1.428" fill="#ffbf00"/><path data-name="Tracé 823" d="M44.37 84.264a2.429 2.429 0 0 1-1.59-4.267l15.24-11.66a2.429 2.429 0 0 1 3.177 3.675l-15.239 11.66a2.417 2.417 0 0 1-1.587.591" fill="#91c492"/><path data-name="Tracé 824" d="M59.611 72.598a2.429 2.429 0 0 1-2.191-1.38l-5.335-11.1a2.429 2.429 0 0 1 4.38-2.1l5.333 11.1a2.426 2.426 0 0 1-1.136 3.239 2.4 2.4 0 0 1-1.051.241" fill="#dd1a45"/><path data-name="Tracé 825" d="M59.605 72.574a2.418 2.418 0 0 1-1.58-.584L19.149 38.647a2.43 2.43 0 1 1 3.163-3.688l38.871 33.342a2.429 2.429 0 0 1-1.578 4.273" fill="#2fa070"/><path data-name="Tracé 826" d="M59.611 72.602h-.08l-57.179-1.85a2.43 2.43 0 1 1 .156-4.856l57.179 1.845a2.429 2.429 0 0 1-.076 4.857" fill="#2fa070"/><path data-name="Tracé 827" d="M59.585 72.563a2.449 2.449 0 0 1-.449-.042l-22.488-4.208a2.429 2.429 0 1 1 .893-4.775l22.491 4.208a2.429 2.429 0 0 1-.444 4.818" fill="#dd1a45"/><path data-name="Tracé 828" d="M59.594 72.575a2.408 2.408 0 0 1-1.158-.3L16.583 49.552a2.429 2.429 0 0 1 2.319-4.268l41.854 22.727a2.429 2.429 0 0 1-1.162 4.564" fill="#ffbf00"/><path data-name="Tracé 829" d="M59.608 72.598a2.419 2.419 0 0 1-.9-.172L26.745 59.733a2.428 2.428 0 1 1 1.793-4.513l31.97 12.693a2.428 2.428 0 0 1-.9 4.685" fill="#91c492"/><path data-name="Tracé 830" d="M59.607 72.599a2.413 2.413 0 0 1-1.372-.427L35.869 58.541a2.428 2.428 0 1 1 2.747-4l22.367 13.626a2.429 2.429 0 0 1-1.376 4.432" fill="#e86061"/></g></svg>